<svg width="35" height="36" viewBox="0 0 35 36" fill="none" xmlns="http://www.w3.org/2000/svg">
<g clip-path="url(#clip0_4_18)">
<path d="M12.0312 30.0778C12.6353 30.0778 13.125 29.579 13.125 28.9638C13.125 28.3486 12.6353 27.8498 12.0312 27.8498C11.4272 27.8498 10.9375 28.3486 10.9375 28.9638C10.9375 29.579 11.4272 30.0778 12.0312 30.0778Z" stroke="#4A4E69" stroke-width="1.875" stroke-linecap="round" stroke-linejoin="round"/>
<path d="M27.3437 30.0778C27.9478 30.0778 28.4375 29.579 28.4375 28.9638C28.4375 28.3486 27.9478 27.8498 27.3437 27.8498C26.7397 27.8498 26.25 28.3486 26.25 28.9638C26.25 29.579 26.7397 30.0778 27.3437 30.0778Z" stroke="#4A4E69" stroke-width="1.875" stroke-linecap="round" stroke-linejoin="round"/>
<path d="M3.28128 5.56996H7.65628L10.9375 24.5078H28.4375" stroke="#4A4E69" stroke-width="1.875" stroke-linecap="round" stroke-linejoin="round"/>
<g filter="url(#filter0_d_4_18)">
<path d="M10.9375 20.0519H27.9891C28.1156 20.052 28.2382 20.0074 28.336 19.9258C28.4338 19.8441 28.5009 19.7305 28.5257 19.6042L30.4945 9.57825C30.5103 9.4974 30.5084 9.41397 30.4888 9.33398C30.4692 9.25399 30.4324 9.17943 30.381 9.11569C30.3297 9.05194 30.2651 9.0006 30.1919 8.96536C30.1187 8.93013 30.0388 8.91188 29.9578 8.91194H8.75002" stroke="#4A4E69" stroke-width="1.875" stroke-linecap="round" stroke-linejoin="round"/>
</g>
</g>
<defs>
<filter id="filter0_d_4_18" x="3.72812" y="7.95841" width="31.7989" height="21.1837" filterUnits="userSpaceOnUse" color-interpolation-filters="sRGB">
<feFlood flood-opacity="0" result="BackgroundImageFix"/>
<feColorMatrix in="SourceAlpha" type="matrix" values="0 0 0 0 0 0 0 0 0 0 0 0 0 0 0 0 0 0 127 0" result="hardAlpha"/>
<feOffset dy="4"/>
<feGaussianBlur stdDeviation="2"/>
<feComposite in2="hardAlpha" operator="out"/>
<feColorMatrix type="matrix" values="0 0 0 0 0 0 0 0 0 0 0 0 0 0 0 0 0 0 0.25 0"/>
<feBlend mode="normal" in2="BackgroundImageFix" result="effect1_dropShadow_4_18"/>
<feBlend mode="normal" in="SourceGraphic" in2="effect1_dropShadow_4_18" result="shape"/>
</filter>
<clipPath id="clip0_4_18">
<rect width="34.4118" height="35.0487" fill="white" transform="scale(1.01709)"/>
</clipPath>
</defs>
</svg>
