<svg width="13" height="15" viewBox="0 0 13 15" fill="none" xmlns="http://www.w3.org/2000/svg">
<path d="M11.875 6.25C11.875 10.625 6.25 14.375 6.25 14.375C6.25 14.375 0.625 10.625 0.625 6.25C0.625 4.75816 1.21763 3.32742 2.27252 2.27252C3.32742 1.21763 4.75816 0.625 6.25 0.625C7.74184 0.625 9.17259 1.21763 10.2275 2.27252C11.2824 3.32742 11.875 4.75816 11.875 6.25Z" stroke="#4A4E69" stroke-width="1.25" stroke-linecap="round" stroke-linejoin="round"/>
<path d="M6.25 8.125C7.28553 8.125 8.125 7.28553 8.125 6.25C8.125 5.21447 7.28553 4.375 6.25 4.375C5.21447 4.375 4.375 5.21447 4.375 6.25C4.375 7.28553 5.21447 8.125 6.25 8.125Z" stroke="#4A4E69" stroke-width="1.25" stroke-linecap="round" stroke-linejoin="round"/>
</svg>
