<svg width="30" height="30" viewBox="0 0 30 30" fill="none" xmlns="http://www.w3.org/2000/svg">
<path d="M6.25 27.401H23.75C24.413 27.401 25.0489 27.1376 25.5178 26.6687C25.9866 26.1999 26.25 25.564 26.25 24.901V13.651C26.251 13.4864 26.2194 13.3234 26.1572 13.1711C26.095 13.0188 26.0034 12.8803 25.8875 12.7635L15.8875 2.76345C15.6533 2.53064 15.3365 2.39996 15.0063 2.39996C14.676 2.39996 14.3592 2.53064 14.125 2.76345L4.125 12.7635C4.00689 12.8792 3.91293 13.0173 3.84856 13.1696C3.78419 13.322 3.75069 13.4856 3.75 13.651V24.901C3.75 25.564 4.01339 26.1999 4.48223 26.6687C4.95107 27.1376 5.58696 27.401 6.25 27.401ZM12.5 24.901V18.651H17.5V24.901H12.5ZM6.25 14.1635L15 5.41345L23.75 14.1635V24.901H20V18.651C20 17.9879 19.7366 17.352 19.2678 16.8832C18.7989 16.4143 18.163 16.151 17.5 16.151H12.5C11.837 16.151 11.2011 16.4143 10.7322 16.8832C10.2634 17.352 10 17.9879 10 18.651V24.901H6.25V14.1635Z" fill="#FBFEF9"/>
</svg>
